HIERARCHY
ROOT Hips
{
  OFFSET 90.7885 88.945 -76.2838
  CHANNELS 6 Xposition Yposition Zposition Zrotation Xrotation Yrotation
  JOINT LeftUpLeg
  {
    OFFSET 8.64259 1.95398 -2.38835
    CHANNELS 3 Zrotation Xrotation Yrotation
    JOINT LeftLeg
    {
      OFFSET 43.7702 0 0
      CHANNELS 3 Zrotation Xrotation Yrotation
      JOINT LeftFoot
      {
        OFFSET 40.6238 0 0
        CHANNELS 3 Zrotation Xrotation Yrotation
        JOINT LeftToeBase
        {
          OFFSET 12.7242 0 0
          CHANNELS 3 Zrotation Xrotation Yrotation
          End Site
          {
            OFFSET 0 0 0
          }
        }
      }
    }
  }
  JOINT RightUpLeg
  {
    OFFSET -8.2249 1.95398 -2.59336
    CHANNELS 3 Zrotation Xrotation Yrotation
    JOINT RightLeg
    {
      OFFSET 43.5653 0 0
      CHANNELS 3 Zrotation Xrotation Yrotation
      JOINT RightFoot
      {
        OFFSET 40.6238 0 0
        CHANNELS 3 Zrotation Xrotation Yrotation
        JOINT RightToeBase
        {
          OFFSET 12.7242 0 0
          CHANNELS 3 Zrotation Xrotation Yrotation
          End Site
          {
            OFFSET 0 0 0
          }
        }
      }
    }
  }
  JOINT Spine
  {
    OFFSET 0.165834 0.87714 6.61349
    CHANNELS 3 Zrotation Xrotation Yrotation
    JOINT Spine1
    {
      OFFSET 7.38963 1.71661e-005 0
      CHANNELS 3 Zrotation Xrotation Yrotation
      JOINT Spine2
      {
        OFFSET 11.9445 1.14441e-005 0
        CHANNELS 3 Zrotation Xrotation Yrotation
        JOINT Spine3
        {
          OFFSET 14.7254 4.19617e-005 0
          CHANNELS 3 Zrotation Xrotation Yrotation
          JOINT Spine4
          {
            OFFSET 10.9679 0 0
            CHANNELS 3 Zrotation Xrotation Yrotation
            JOINT RightShoulder
            {
              OFFSET 2.46616 -1.6653 3.69651
              CHANNELS 3 Zrotation Xrotation Yrotation
              JOINT RightArm
              {
                OFFSET 13.0012 0 0
                CHANNELS 3 Zrotation Xrotation Yrotation
                JOINT RightForeArm
                {
                  OFFSET 28.7848 1.52588e-005 0
                  CHANNELS 3 Zrotation Xrotation Yrotation
                  JOINT RightHand
                  {
                    OFFSET 26.5688 1.52588e-005 0
                    CHANNELS 3 Zrotation Xrotation Yrotation
                    End Site
                    {
                      OFFSET 0 0 0
                    }
                  }
                }
              }
            }
            JOINT LeftShoulder
            {
              OFFSET 2.38034 -1.29275 -3.7523
              CHANNELS 3 Zrotation Xrotation Yrotation
              JOINT LeftArm
              {
                OFFSET 16.3182 6.10352e-005 0
                CHANNELS 3 Zrotation Xrotation Yrotation
                JOINT LeftForeArm
                {
                  OFFSET 27.0901 0 0
                  CHANNELS 3 Zrotation Xrotation Yrotation
                  JOINT LeftHand
                  {
                    OFFSET 24.5451 1.52588e-005 0
                    CHANNELS 3 Zrotation Xrotation Yrotation
                    End Site
                    {
                      OFFSET 0 0 0
                    }
                  }
                }
              }
            }
            JOINT Neck
            {
              OFFSET 5.0226 -0.0266342 0
              CHANNELS 3 Zrotation Xrotation Yrotation
              JOINT Head
              {
                OFFSET 6.69363 2.86102e-005 0
                CHANNELS 3 Zrotation Xrotation Yrotation
                End Site
                {
                  OFFSET 0 0 0
                }
              }
            }
          }
        }
      }
    }
  }
}
MOTION
Frames:	18
Frame Time:	0.0416667
39.3796 99.7821 27.5179 -173.412 -81.3049 -174.917 -177.261 -6.3686 90.229 -11.2443 4.09411 0.460602 71.6093 4.92449 -3.54938 13.5181 -1.6447 4.15808 167.427 -6.5952 83.4174 -10.2496 -7.32204 -0.818621 67.7307 -4.31315 1.65065 25.1205 -0.837824 2.62287 0.161541 8.03532 -89.9132 10.8031 0.361793 0.139091 -0.867819 0.367564 0.123027 -23.4032 0.303265 0.241388 -3.39057 0.303261 0.241383 87.5782 -31.0212 -111.071 39.0735 -17.8024 -6.7539 4.48671 -20.1816 -15.1648 -22.3988 -0.5802 -7.1303 -89.7222 -52.1149 79.5785 -19.4297 24.1945 -19.3215 0.0743037 2.46503 -5.06979 0.608637 -0.146581 -6.52399 5.47552 -1.76284 -3.35867 -3.72242 -1.12919 1.59497 
39.2122 99.8171 27.4759 -174.681 -81.7597 -175.731 -176.708 -5.62286 91.0723 -11.6566 4.89707 0.136486 71.7151 4.93813 -3.72868 13.8841 -2.33088 4.89935 168.105 -6.52812 84.2967 -9.83338 -7.13611 -0.956259 66.6741 -3.89036 1.04313 25.2878 -1.08801 3.14104 0.145508 7.98123 -89.9589 10.9113 0.308729 0.0526016 -0.75958 0.310751 0.0389498 -23.295 0.278648 0.142956 -3.28233 0.278654 0.142954 87.6197 -31.0516 -110.977 39.5779 -17.4527 -6.80736 4.33292 -20.7042 -15.0665 -23.4143 -0.695678 -6.56842 -89.7614 -52.1479 79.5279 -18.5955 25.4539 -19.1931 -0.454705 1.80244 -5.74497 1.11358 -0.128318 -5.60333 4.79875 -1.82486 -3.9136 -2.47144 -1.09752 2.59245 
39.2318 99.8122 27.4278 -174.813 -82.1164 -176.213 -177.004 -5.34192 90.6079 -11.5394 4.80968 0.192589 71.6507 4.94288 -3.56987 13.8101 -2.53984 5.14169 167.916 -5.95501 83.9824 -10.0646 -7.28895 -0.885966 66.8807 -3.92224 1.15984 25.0166 -0.701837 2.34628 0.160898 7.93722 -89.9433 10.9993 0.346606 0.0797689 -0.671614 0.349785 0.0644256 -23.2071 0.306604 0.180248 -3.19441 0.306615 0.180257 87.8307 -30.9609 -110.61 39.6354 -17.4232 -6.67506 4.26922 -20.9491 -15.1651 -23.4448 -0.720704 -6.50015 -90.1135 -52.2965 79.045 -18.3934 25.6629 -19.3401 -0.708061 1.1546 -5.49827 1.1148 -0.166509 -6.86738 4.52083 -1.85592 -3.61655 -1.99291 -1.17865 2.22588 
39.252 99.8268 27.4114 -174.667 -82.1412 -176.066 -176.969 -5.30485 90.6312 -11.5142 4.81076 0.135021 71.5142 4.88055 -3.71967 13.9032 -2.62162 5.22724 167.931 -5.84394 83.9777 -10.1758 -7.34911 -0.905128 66.9047 -3.94799 0.874236 24.9208 -0.988906 2.9803 0.181275 7.92718 -89.9777 11.0195 0.371245 0.00885876 -0.651384 0.371283 -0.00749748 -23.1869 0.351416 0.12002 -3.17429 0.351426 0.120028 88.0685 -30.6526 -110.282 39.7347 -17.2429 -6.60401 4.29721 -22.5282 -15.2642 -22.8824 -0.770483 -6.70909 -90.4046 -52.8685 78.7412 -17.9784 25.6358 -19.4401 -0.798031 1.09451 -5.39921 1.67859 -0.172437 -6.68452 4.30262 -1.88616 -3.08456 -1.9128 -1.30847 1.89264 
39.2513 99.821 27.4261 -175.004 -82.1106 -176.382 -176.948 -5.28391 90.639 -11.6593 4.87151 0.127284 71.7431 4.98829 -3.44105 13.4028 -2.44252 5.06451 167.896 -5.91407 83.9758 -10.1668 -7.37216 -0.868269 66.8767 -3.93777 0.955595 25.0478 -0.900491 2.77035 0.175508 7.93141 -89.9756 11.0111 0.360736 0.0140626 -0.659833 0.361005 -0.00184092 -23.1954 0.33984 0.121826 -3.18271 0.339828 0.121818 88.031 -30.6737 -110.346 39.78 -17.07 -6.65558 4.35265 -22.7467 -15.1414 -23.0429 -0.779212 -6.7217 -90.284 -52.7595 78.8933 -17.9581 25.7721 -19.511 -0.803822 1.32172 -5.53515 1.58799 -0.170813 -6.69158 4.43117 -1.84646 -3.14082 -2.05543 -1.25828 1.95068 
39.2345 99.8246 27.4391 -175.23 -82.039 -176.571 -176.926 -5.28856 90.704 -11.7805 4.99818 0.157518 71.6264 4.92136 -3.55124 13.8791 -2.46312 5.04982 167.895 -6.07626 84.0302 -10.0306 -7.5075 -0.840751 66.8172 -3.94458 0.739573 25.0498 -0.69966 2.33593 0.185961 7.9308 -89.984 11.0036 0.377682 -0.00416652 -0.667259 0.377136 -0.0207941 -23.2028 0.361465 0.109535 -3.19019 0.361476 0.109539 88.0599 -30.7037 -110.277 39.7096 -17.0892 -6.58487 4.35933 -23.2834 -15.1987 -22.8542 -0.787544 -6.84612 -90.426 -52.8276 78.7016 -17.8153 25.8772 -19.5569 -0.927896 0.697201 -5.43576 1.05251 -0.169461 -7.0027 4.35396 -1.96331 -3.09742 -1.92883 -1.38086 1.80718 
39.2553 99.8134 27.459 -175.104 -82.0633 -176.487 -176.956 -5.38241 90.6135 -11.589 5.04392 0.142734 71.7239 5.0175 -3.18411 13.4385 -2.35766 4.96616 167.913 -5.95204 83.9692 -10.2211 -7.34686 -0.900761 66.8862 -3.93881 0.933972 24.9843 -0.84577 2.66135 0.189949 7.92927 -89.9726 11.016 0.390893 0.0171096 -0.654914 0.391261 -0.00011766 -23.1905 0.367673 0.133797 -3.17786 0.367672 0.133792 88.0307 -30.8167 -110.285 39.6535 -17.2292 -6.63868 4.40299 -23.414 -15.0907 -23.2405 -0.796649 -6.82099 -90.4244 -52.6901 78.6752 -17.918 25.8574 -19.5618 -0.861365 1.05946 -5.45924 0.758145 -0.157839 -6.854 4.44983 -1.97183 -3.29847 -2.03805 -1.3527 1.92523 
39.2392 99.8264 27.4965 -175.572 -81.9194 -176.865 -176.9 -5.53354 90.7428 -11.6254 5.03986 0.184782 71.7116 4.97436 -3.48571 13.6163 -2.51868 5.13303 167.881 -6.24727 84.0285 -10.0535 -7.54266 -0.846409 66.6897 -3.85509 0.90387 25.2874 -0.684768 2.26237 0.179128 7.94195 -89.9805 10.99 0.365681 0.00390486 -0.680867 0.365499 -0.0121959 -23.2164 0.347591 0.113626 -3.20375 0.347605 0.113636 87.9155 -30.8199 -110.507 39.6813 -17.0157 -6.5706 4.31621 -23.8705 -15.1291 -22.9765 -0.818981 -6.83975 -90.313 -52.7455 78.8482 -17.7384 26.0245 -19.4897 -0.933681 0.652762 -5.63137 0.875211 -0.164024 -6.95972 4.49811 -1.91305 -3.33121 -1.89519 -1.28483 1.99777 
39.2457 99.8276 27.5278 -176.082 -81.8552 -177.378 -176.858 -5.51107 90.7705 -11.8423 5.12164 0.149947 71.8531 5.00174 -3.42778 13.3721 -2.23849 4.83797 167.922 -6.44447 84.023 -9.78065 -7.00446 -0.919999 66.9914 -4.07958 0.559308 24.7633 -1.3605 3.80497 0.184483 7.95443 -89.9856 10.965 0.373981 -0.00684747 -0.705862 0.373323 -0.0233209 -23.2414 0.358747 0.105867 -3.22878 0.358755 0.105861 88.06 -30.9014 -110.193 39.6111 -17.2468 -6.7046 4.34532 -22.8059 -15.0718 -22.8296 -0.710492 -7.15747 -90.4272 -52.5987 78.6517 -18.0189 25.7575 -19.5728 -0.845888 0.879233 -5.37322 1.23328 -0.167644 -6.81968 4.66633 -2.00813 -3.43176 -2.05078 -1.35801 2.18092 
39.2327 99.8271 27.5223 -176.147 -81.9378 -177.495 -176.818 -5.46958 90.7855 -11.7251 5.21902 0.0743237 71.6706 4.95526 -3.54619 13.6594 -2.56172 5.17825 167.869 -6.19928 83.9863 -10.154 -7.49036 -0.851809 66.7314 -3.8624 1.03304 25.2448 -0.500398 1.87111 0.17757 7.94232 -89.9785 10.9892 0.363502 0.00810046 -0.681665 0.363506 -0.00792317 -23.2172 0.344253 0.116962 -3.20455 0.344264 0.116967 87.9786 -30.9453 -110.331 39.5482 -17.1001 -6.68125 4.60387 -23.6983 -14.9371 -23.2208 -0.74726 -7.19717 -90.3824 -52.633 78.7241 -17.8538 25.9837 -19.4762 -0.885357 0.95289 -5.66925 1.05601 -0.151103 -6.3904 4.6347 -1.97617 -3.52329 -2.17317 -1.31383 2.26786 
39.2428 99.8311 27.5339 -175.903 -81.825 -177.192 -176.837 -5.59059 90.8002 -11.7444 5.06311 0.136868 71.769 4.97798 -3.54749 13.4017 -2.46107 5.0855 167.87 -6.38635 84.0133 -10.0263 -7.52449 -0.85269 66.7749 -3.91239 0.819751 25.1299 -0.658492 2.23296 0.185196 7.95418 -89.9863 10.9658 0.37508 -0.00837146 -0.705057 0.374348 -0.0248709 -23.2406 0.360258 0.10475 -3.22798 0.360253 0.104741 87.9862 -30.8965 -110.337 39.59 -17.1376 -6.65054 4.53332 -22.9411 -14.97 -22.9196 -0.717759 -7.1489 -90.4048 -52.6563 78.6963 -17.8541 25.8886 -19.4751 -0.89606 0.838418 -5.53903 1.19661 -0.151982 -6.33491 4.56405 -1.92476 -3.52178 -2.12743 -1.2648 2.17691 
39.2524 99.8271 27.5393 -176.157 -81.8454 -177.514 -176.866 -5.5697 90.7234 -11.7321 5.29244 0.134662 71.6411 4.95548 -3.36908 13.6769 -2.33589 4.9224 167.851 -6.35184 83.9374 -9.98135 -7.25462 -0.889835 66.8712 -3.97686 0.456502 25.1804 -1.38072 3.78876 0.18667 7.95125 -89.9837 10.9657 0.379243 -0.00356909 -0.705196 0.378723 -0.0202569 -23.2408 0.362779 0.110581 -3.22814 0.36278 0.110573 88.045 -30.9593 -110.197 39.5069 -17.1811 -6.71075 4.63388 -23.1373 -14.8338 -23.3681 -0.704989 -7.2623 -90.3828 -52.8484 78.7686 -17.5781 26.1011 -19.5284 -0.983674 0.751334 -5.68031 0.951058 -0.155221 -6.60866 4.57242 -1.90228 -3.4505 -2.16467 -1.25588 2.14582 
39.2414 99.8195 27.534 -176.367 -81.8342 -177.655 -176.76 -5.5878 90.8721 -11.7276 5.3222 0.0660481 71.8454 5.01518 -3.56161 13.5038 -2.59636 5.22957 167.891 -6.41897 84.0436 -9.99532 -7.49817 -0.865297 66.788 -3.91878 0.705927 25.0186 -0.763237 2.47856 0.178471 7.96084 -89.9876 10.9522 0.36112 -0.00951438 -0.718665 0.360346 -0.0254045 -23.2542 0.347281 0.0994629 -3.24156 0.347279 0.0994512 87.9932 -31.0348 -110.265 39.3874 -17.2681 -6.78169 4.68363 -23.1287 -14.7678 -23.1636 -0.682642 -7.40293 -90.2678 -52.6946 78.903 -17.8803 25.7951 -19.5195 -0.783128 1.19093 -5.62348 1.12147 -0.152457 -6.4 4.75699 -1.8886 -3.54121 -2.29343 -1.22269 2.15627 
39.2667 99.8294 27.5156 -175.73 -81.8706 -177.111 -176.913 -5.59895 90.6566 -11.6128 4.98324 0.135982 71.705 4.982 -3.45619 13.3494 -2.35121 4.96606 167.852 -6.20547 83.9138 -10.1964 -7.25051 -0.896874 66.9065 -3.95603 0.778853 25.024 -1.08463 3.17131 0.190466 7.95198 -89.9812 10.97 0.38791 0.000490825 -0.700922 0.387562 -0.0165929 -23.2365 0.369825 0.117047 -3.22386 0.369833 0.117059 87.9823 -31.0913 -110.262 39.3467 -17.2128 -6.72044 4.66353 -23.2817 -14.6914 -23.2028 -0.673537 -7.50274 -90.3255 -52.7659 78.8344 -17.6376 25.9898 -19.4864 -0.886523 0.998954 -5.71801 0.821453 -0.15861 -6.81008 4.70989 -1.84059 -3.27571 -2.32569 -1.22401 1.70766 
39.2414 99.827 27.5216 -176.88 -81.94 -178.22 -176.831 -5.48978 90.7902 -11.6723 5.14693 0.0962966 71.7326 4.96292 -3.76792 13.5779 -2.73485 5.38136 167.858 -6.22786 83.9944 -10.1368 -7.40781 -0.835929 66.7911 -3.90028 0.869626 25.0901 -0.564621 2.03815 0.178623 7.94598 -89.996 10.982 0.357519 -0.026084 -0.688939 0.356023 -0.0418002 -23.2245 0.348824 0.0825698 -3.21183 0.34883 0.0825688 88.0812 -30.9447 -110.133 39.4447 -17.289 -6.774 4.71613 -23.3462 -14.7653 -23.3419 -0.699367 -7.36179 -90.4255 -52.9447 78.7269 -17.4702 25.9619 -19.5495 -0.845328 1.50232 -5.72063 0.552518 -0.139631 -6.28345 4.63406 -1.89444 -3.35678 -2.11861 -1.26205 2.03121 
39.2324 99.8246 27.5159 -177.399 -81.9045 -178.663 -176.788 -5.40472 90.8958 -11.8779 5.29489 0.11878 71.669 4.91064 -3.76182 13.923 -2.62641 5.23111 167.911 -6.43847 84.0695 -9.81365 -6.8979 -0.856311 66.9337 -4.0273 0.768274 24.856 -1.17154 3.38325 0.176413 7.94988 -90.0054 10.9742 0.348785 -0.0438569 -0.696702 0.346515 -0.0591723 -23.2322 0.345841 0.0629901 -3.21958 0.345838 0.0629888 88.0478 -30.9615 -110.19 39.4405 -17.3364 -6.7273 4.5549 -22.7831 -14.8819 -23.3021 -0.714113 -7.10244 -90.4574 -52.9453 78.6812 -17.393 26.0622 -19.5351 -0.936082 1.01178 -5.75604 0.888164 -0.150982 -6.47518 4.74315 -1.9086 -3.25747 -2.31519 -1.29377 1.92192 
39.1942 99.8241 27.5209 -176.841 -81.7789 -177.98 -176.664 -5.53035 91.0719 -11.9283 5.3119 0.0789293 71.9273 5.01362 -3.6175 13.2838 -2.51965 5.16048 168.045 -6.64793 84.2319 -9.67852 -6.73719 -0.918177 66.6648 -3.91893 0.817745 25.194 -1.35002 3.72259 0.182106 7.96064 -90.0024 10.9527 0.361468 -0.0391093 -0.718222 0.3594 -0.0549886 -23.2538 0.356514 0.0713417 -3.24112 0.356509 0.0713381 87.9701 -31.1109 -110.277 39.4038 -17.2281 -6.71546 4.4986 -23.5141 -14.9772 -23.2185 -0.721715 -7.29414 -90.3577 -52.7255 78.7793 -17.5497 25.9385 -19.5167 -0.818752 1.40559 -5.67416 0.632482 -0.149589 -6.621 4.62629 -2.0162 -3.90863 -2.26477 -1.28672 2.46012 
39.2132 99.8244 27.4962 -177.502 -81.9046 -178.738 -176.731 -5.32263 90.9468 -12.0036 5.60593 0.0771829 71.7284 4.97092 -3.28357 13.7333 -2.18445 4.7469 167.96 -6.45399 84.1264 -9.73608 -6.86322 -0.868048 66.8676 -4.02545 0.372821 24.9258 -1.54313 4.17713 0.169047 7.94848 -90.0049 10.977 0.334303 -0.0415219 -0.693904 0.332164 -0.0562021 -23.2294 0.331326 0.0608677 -3.21675 0.331335 0.0608712 88.0359 -31.0294 -110.185 39.3977 -17.4331 -6.72573 4.47875 -22.5425 -14.9258 -23.4587 -0.685124 -7.19001 -90.3514 -52.8788 78.8203 -17.51 26.0184 -19.5204 -0.878243 1.1465 -5.77146 0.632368 -0.150609 -6.66022 4.58385 -1.92289 -3.43134 -2.12074 -1.27835 2.09836 
